<?xml version="1.0" standalone="no"?>
<!DOCTYPE svg PUBLIC "-//W3C//DTD SVG 20010904//EN"
 "http://www.w3.org/TR/2001/REC-SVG-20010904/DTD/svg10.dtd">
<svg version="1.0" xmlns="http://www.w3.org/2000/svg"
 width="1515.000000pt" height="1515.000000pt" viewBox="0 0 1515.000000 1515.000000"
 preserveAspectRatio="xMidYMid meet">
<metadata>
Created by potrace 1.11, written by Peter Selinger 2001-2013
</metadata>
<g transform="translate(0.000000,1515.000000) scale(0.100000,-0.100000)"
fill="#000000" stroke="none">
<path d="M12978 14829 c-21 -11 -38 -25 -38 -31 0 -6 -3 -9 -6 -5 -5 5 -132
-66 -144 -82 -3 -3 -31 -19 -62 -36 -31 -16 -54 -34 -51 -39 3 -5 2 -6 -4 -3
-5 3 -26 -5 -46 -18 -20 -14 -41 -25 -46 -25 -6 0 -11 -4 -11 -8 0 -5 -18 -17
-40 -27 -22 -10 -37 -22 -34 -27 3 -5 2 -7 -3 -6 -13 3 -53 -13 -53 -22 0 -4
-8 -10 -17 -14 -32 -11 -115 -62 -124 -77 -5 -8 -9 -11 -9 -7 0 9 -101 -51
-111 -65 -3 -5 -10 -9 -15 -9 -15 -1 -54 -21 -54 -27 0 -3 -25 -19 -55 -36
-30 -16 -55 -33 -55 -38 0 -4 -5 -5 -10 -2 -6 3 -13 -1 -16 -9 -3 -9 -10 -14
-14 -11 -5 3 -13 -3 -19 -12 -6 -10 -11 -14 -11 -10 0 11 -60 -25 -60 -36 0
-4 -5 -5 -10 -2 -6 3 -13 -1 -16 -9 -3 -9 -10 -14 -14 -11 -4 3 -18 -4 -31
-14 -13 -10 -51 -33 -84 -52 -33 -18 -65 -38 -72 -44 -37 -31 -43 -35 -43 -30
0 6 -12 -1 -61 -33 -15 -9 -53 -32 -85 -51 -33 -19 -60 -38 -62 -43 -2 -4 -10
-8 -18 -8 -8 0 -14 -5 -14 -10 0 -6 -3 -9 -7 -8 -11 4 -73 -35 -73 -45 0 -4
-4 -6 -9 -2 -5 3 -12 1 -16 -5 -3 -5 -21 -17 -39 -25 -18 -9 -42 -24 -53 -33
-10 -9 -25 -18 -33 -20 -8 -2 -17 -7 -20 -11 -3 -4 -29 -20 -57 -36 -29 -15
-53 -32 -53 -37 0 -4 -3 -7 -7 -6 -11 4 -73 -35 -73 -45 0 -4 -4 -6 -9 -3 -5
3 -19 -2 -32 -12 -13 -10 -43 -29 -66 -42 -24 -13 -43 -28 -43 -32 0 -5 -4 -7
-8 -4 -5 3 -19 -4 -30 -15 -12 -11 -22 -16 -22 -12 0 4 -7 -1 -15 -11 -8 -11
-15 -17 -15 -13 0 9 -134 -74 -138 -85 -2 -5 -7 -6 -12 -3 -4 3 -13 -2 -20
-10 -7 -8 -19 -15 -27 -15 -7 0 -16 -7 -19 -15 -4 -8 -10 -13 -14 -10 -5 3
-15 -2 -23 -10 -9 -8 -21 -15 -27 -15 -6 0 -13 -7 -16 -15 -4 -8 -10 -13 -14
-10 -5 3 -17 -3 -27 -13 -10 -11 -29 -22 -43 -25 -14 -4 -36 -17 -50 -30 -14
-13 -29 -24 -35 -25 -5 -1 -17 -8 -27 -16 -9 -8 -19 -12 -22 -9 -3 4 -6 1 -6
-6 0 -7 -4 -9 -10 -6 -5 3 -10 1 -10 -4 0 -6 -7 -11 -15 -11 -9 0 -18 -7 -21
-15 -4 -8 -10 -13 -14 -10 -5 3 -23 -7 -41 -22 -18 -16 -35 -27 -38 -26 -3 1
-16 -7 -28 -17 -13 -11 -23 -17 -23 -14 0 3 -13 -3 -30 -13 -16 -9 -30 -21
-30 -26 0 -4 -5 -5 -10 -2 -6 3 -13 -1 -16 -9 -3 -9 -9 -14 -13 -12 -3 2 -17
-2 -31 -10 -14 -7 -20 -14 -15 -14 6 0 -8 -9 -30 -20 -22 -11 -49 -25 -60 -32
-72 -47 -105 -66 -139 -83 -21 -11 -40 -26 -43 -32 -3 -7 -9 -10 -14 -7 -5 3
-12 -2 -15 -10 -3 -9 -10 -13 -15 -11 -4 3 -17 -3 -29 -15 -11 -11 -20 -17
-20 -14 0 3 -12 -3 -27 -14 -16 -10 -35 -22 -43 -25 -8 -4 -28 -16 -45 -27
-16 -11 -39 -24 -50 -29 -11 -5 -29 -18 -40 -28 -11 -11 -23 -19 -27 -19 -4 1
-16 -7 -28 -16 -11 -10 -20 -14 -20 -10 0 4 -7 -1 -15 -12 -7 -10 -18 -15 -24
-11 -6 3 -11 1 -11 -4 0 -6 -6 -11 -14 -11 -8 0 -17 -7 -20 -16 -3 -8 -10 -12
-16 -9 -5 3 -10 1 -10 -5 0 -6 -4 -8 -10 -5 -5 3 -10 2 -10 -4 0 -9 -11 -9
-62 5 -13 3 -32 7 -43 9 -25 4 -72 13 -105 20 -30 6 -89 17 -110 20 -31 4
-116 16 -150 22 -19 3 -51 7 -70 9 -19 1 -55 5 -80 8 -64 8 -156 16 -221 20
-30 1 -60 5 -65 7 -12 7 -667 2 -764 -5 -41 -3 -104 -8 -140 -11 -36 -3 -86
-7 -112 -8 -27 -1 -48 -4 -48 -7 0 -3 -15 -6 -33 -7 -45 -3 -122 -11 -122 -13
0 -1 -11 -3 -25 -5 -80 -9 -156 -21 -200 -31 -14 -3 -38 -7 -55 -9 -16 -2 -41
-6 -55 -10 -14 -3 -36 -8 -50 -10 -29 -5 -65 -13 -65 -15 0 -1 -11 -3 -25 -5
-14 -2 -63 -13 -110 -25 -47 -11 -92 -22 -100 -24 -8 -2 -35 -9 -60 -16 -25
-7 -49 -13 -55 -14 -5 -2 -30 -9 -55 -16 -25 -8 -48 -14 -52 -16 -5 -1 -10 -3
-13 -4 -3 -1 -8 -3 -12 -4 -5 -1 -35 -10 -68 -20 -33 -10 -60 -17 -60 -15 0 1
-10 -3 -23 -10 -13 -7 -31 -14 -40 -16 -9 -2 -35 -10 -57 -18 -22 -8 -49 -18
-60 -23 -11 -4 -29 -9 -40 -11 -10 -2 -23 -9 -27 -16 -4 -6 -8 -9 -8 -5 0 4
-20 -1 -45 -12 -25 -11 -45 -17 -45 -13 0 3 -7 -1 -16 -8 -9 -7 -25 -15 -37
-16 -12 -2 -25 -9 -29 -16 -4 -6 -8 -8 -8 -3 0 5 -6 3 -13 -3 -8 -6 -17 -8
-20 -4 -4 3 -7 1 -7 -6 0 -7 -4 -9 -10 -6 -5 3 -10 1 -10 -4 0 -6 -3 -10 -7
-9 -5 1 -21 -4 -36 -10 -16 -7 -33 -12 -38 -12 -5 0 -9 -5 -9 -12 0 -6 -3 -9
-6 -5 -4 3 -25 -4 -48 -15 -22 -12 -43 -22 -46 -23 -3 0 -11 -4 -17 -8 -7 -5
-13 -5 -13 -1 0 4 -7 -1 -16 -12 -8 -10 -12 -12 -8 -4 6 13 5 13 -12 -1 -20
-16 -70 -41 -92 -45 -8 -1 -22 -10 -31 -18 -10 -9 -21 -16 -26 -16 -5 0 -17
-8 -28 -17 -13 -11 -17 -13 -12 -4 5 8 -7 3 -27 -12 -19 -15 -38 -24 -41 -20
-4 3 -7 1 -7 -6 0 -7 -4 -10 -9 -7 -5 3 -14 -1 -21 -9 -7 -8 -19 -15 -26 -15
-8 0 -14 -5 -14 -11 0 -5 -4 -7 -10 -4 -6 3 -10 1 -10 -4 0 -6 -9 -11 -20 -11
-11 0 -23 -7 -26 -15 -4 -8 -10 -12 -15 -9 -5 3 -9 0 -9 -6 0 -6 -4 -9 -9 -6
-5 3 -12 -1 -15 -10 -3 -8 -10 -12 -16 -9 -5 3 -10 1 -10 -5 0 -6 -4 -9 -9 -6
-5 3 -12 -1 -15 -10 -3 -8 -10 -12 -16 -9 -5 3 -10 1 -10 -5 0 -6 -4 -9 -9 -5
-6 3 -14 -3 -20 -12 -6 -10 -11 -13 -11 -8 0 7 -3 7 -8 0 -13 -18 -75 -58 -68
-44 5 10 4 10 -6 -1 -25 -28 -62 -56 -53 -40 4 8 -5 4 -21 -10 -16 -14 -30
-28 -32 -33 -2 -4 -8 -5 -13 -1 -5 3 -9 1 -9 -4 0 -5 -12 -17 -26 -27 -18 -11
-24 -13 -19 -4 5 8 -3 3 -17 -11 -35 -34 -58 -52 -58 -45 0 5 -29 -17 -55 -42
-8 -7 -17 -13 -21 -13 -4 0 -13 -8 -21 -17 -9 -12 -12 -12 -8 -3 4 8 -4 2 -19
-14 -14 -16 -26 -25 -26 -21 0 4 -9 -2 -20 -15 -11 -13 -20 -21 -20 -18 0 4
-14 -7 -31 -23 -17 -16 -36 -26 -42 -22 -5 3 -8 2 -5 -3 3 -5 0 -15 -8 -22 -8
-7 -14 -9 -14 -5 0 4 -7 -3 -16 -15 -8 -12 -21 -22 -27 -22 -7 0 -21 -11 -31
-25 -10 -14 -23 -25 -29 -25 -5 0 -22 -15 -38 -32 -16 -18 -29 -30 -29 -26 0
4 -19 -11 -42 -33 -85 -79 -97 -89 -107 -89 -5 0 -13 -5 -17 -12 -5 -7 -3 -8
7 -3 12 8 12 6 0 -8 -7 -9 -17 -17 -22 -17 -5 0 -44 -36 -88 -79 -43 -44 -82
-77 -86 -73 -4 4 -5 2 -3 -3 2 -6 -25 -38 -60 -72 -34 -34 -62 -66 -62 -71 0
-5 -12 -19 -27 -33 -14 -13 -23 -18 -18 -10 5 9 4 12 -3 7 -7 -4 -12 -12 -12
-19 0 -6 -12 -21 -26 -33 -14 -13 -25 -26 -26 -31 0 -4 -4 -7 -9 -5 -5 1 -9
-2 -9 -8 0 -5 -15 -24 -32 -42 -18 -17 -26 -27 -18 -23 13 8 13 6 1 -8 -7 -9
-18 -14 -24 -10 -6 3 -7 1 -3 -5 4 -7 2 -12 -3 -12 -6 0 -11 -5 -11 -10 0 -6
-14 -24 -30 -40 -17 -17 -27 -30 -23 -30 4 0 -3 -7 -15 -16 -12 -8 -22 -22
-22 -30 0 -8 -4 -13 -9 -9 -5 3 -12 -4 -16 -15 -3 -11 -11 -20 -16 -20 -5 0
-9 -6 -9 -13 0 -7 -9 -18 -20 -25 -12 -7 -18 -17 -15 -21 3 -5 1 -11 -4 -13
-5 -1 -28 -27 -51 -57 -24 -30 -36 -50 -29 -45 8 4 -1 -7 -19 -25 -17 -18 -32
-39 -32 -47 0 -9 -4 -12 -10 -9 -5 3 -12 -6 -16 -20 -3 -14 -9 -25 -13 -25 -4
0 -14 -12 -22 -27 -8 -16 -21 -34 -29 -41 -13 -12 -13 -13 0 -6 9 4 7 -1 -5
-14 -33 -34 -46 -52 -40 -52 4 0 -1 -7 -9 -16 -9 -8 -16 -22 -16 -30 0 -8 -4
-13 -8 -10 -4 2 -14 -4 -21 -16 -10 -16 -10 -19 1 -13 7 3 5 0 -4 -8 -10 -8
-18 -19 -18 -24 0 -6 -7 -16 -15 -23 -8 -7 -12 -16 -9 -21 3 -5 1 -9 -3 -9
-10 0 -88 -131 -85 -142 1 -5 -3 -8 -9 -8 -5 0 -7 -4 -4 -10 3 -5 2 -10 -3
-10 -8 0 -35 -45 -36 -62 -1 -4 -8 -16 -17 -26 -26 -31 -34 -46 -18 -37 8 5 5
-3 -7 -16 -20 -23 -34 -51 -33 -65 0 -4 -3 -10 -8 -13 -12 -9 -45 -71 -38 -71
4 0 -1 -7 -9 -16 -9 -8 -14 -20 -11 -25 4 -5 2 -9 -3 -9 -9 0 -58 -110 -54
-122 1 -5 -3 -8 -9 -8 -5 0 -7 -4 -4 -10 3 -5 1 -10 -4 -10 -6 0 -11 -4 -11
-10 0 -5 -11 -33 -24 -62 -49 -109 -120 -284 -130 -323 -2 -5 -6 -18 -10 -27
-4 -9 -8 -22 -10 -30 -1 -7 -4 -17 -7 -23 -6 -10 -61 -178 -99 -300 -28 -93
-70 -248 -76 -281 -2 -16 -9 -42 -14 -59 -5 -16 -14 -57 -21 -90 -7 -33 -14
-67 -16 -75 -2 -8 -5 -30 -8 -49 -3 -18 -7 -36 -9 -40 -3 -3 -7 -27 -11 -51
-3 -25 -10 -70 -15 -100 -5 -30 -12 -73 -15 -95 -4 -22 -8 -51 -10 -65 -4 -22
-16 -122 -30 -245 -28 -249 -28 -955 0 -1180 3 -16 7 -55 10 -85 3 -30 7 -66
9 -80 2 -14 6 -50 10 -80 11 -83 57 -352 77 -445 84 -394 223 -822 387 -1195
60 -138 192 -402 253 -508 27 -47 49 -86 49 -88 0 -5 126 -208 189 -304 509
-778 1241 -1471 2049 -1938 781 -453 1622 -722 2517 -806 364 -34 865 -35
1170 -1 156 17 252 30 335 45 30 5 67 11 83 12 15 1 27 5 27 8 0 3 10 5 23 6
27 1 67 8 167 29 41 9 86 19 99 21 271 53 1023 297 1005 326 -3 5 -8 7 -11 4
-3 -3 -14 4 -26 15 -11 10 -33 25 -49 31 -15 7 -28 16 -28 20 0 5 -4 8 -10 8
-5 0 -24 10 -43 23 -18 12 -66 42 -106 67 -40 25 -88 57 -108 73 -20 15 -42
27 -49 27 -7 0 -14 3 -16 8 -5 12 -112 77 -121 74 -5 -1 -6 2 -3 7 4 5 -7 15
-24 23 -16 7 -30 17 -30 21 0 5 -4 5 -10 2 -5 -3 -10 -2 -10 2 0 5 -18 19 -40
33 -22 14 -40 28 -40 32 0 4 -8 9 -19 13 -10 3 -31 16 -46 29 -16 14 -40 30
-54 38 -14 7 -31 20 -38 28 -7 8 -13 11 -13 5 0 -5 -7 1 -16 13 -8 12 -19 22
-24 22 -9 0 -36 19 -65 48 -8 6 -16 12 -20 12 -3 0 -20 13 -38 30 -18 16 -35
30 -39 30 -4 0 -18 10 -31 23 -12 12 -35 31 -49 42 -34 26 -166 145 -190 169
-10 11 -18 16 -19 10 0 -5 -4 1 -9 14 -5 12 -17 25 -26 29 -9 3 -34 25 -57 49
-23 23 -45 40 -51 37 -5 -3 -6 -2 -3 4 7 10 -45 63 -63 63 -6 0 -9 4 -6 8 2 4
-11 23 -31 42 -20 19 -47 50 -60 67 -14 18 -29 30 -34 27 -5 -3 -8 -1 -7 4 2
5 -8 22 -22 38 -14 16 -53 66 -87 111 -33 45 -64 79 -69 75 -4 -4 -4 -2 -1 4
4 6 -4 23 -18 38 -13 14 -22 26 -19 26 3 0 -8 19 -24 43 -16 23 -42 62 -58 87
-16 25 -32 47 -37 48 -4 2 -5 7 -2 12 3 4 -5 23 -18 41 -12 19 -36 61 -52 94
-16 33 -34 63 -38 66 -5 3 -9 10 -9 15 0 5 -8 28 -19 51 -10 23 -19 47 -19 52
0 6 -5 11 -12 11 -6 0 -9 3 -6 6 4 3 -4 29 -17 57 -27 61 -38 90 -39 99 -1 3
-4 10 -8 14 -5 4 -8 13 -8 20 0 7 -5 25 -12 41 -6 15 -12 33 -14 38 -1 6 -9
29 -18 53 -8 23 -15 44 -16 47 -4 33 -14 67 -21 71 -5 3 -7 10 -4 15 4 5 3 15
-1 21 -5 7 -9 19 -10 28 -1 8 -5 26 -8 40 -3 14 -8 34 -10 45 -2 11 -9 40 -15
65 -20 90 -45 266 -58 405 -7 86 -7 428 1 510 9 102 30 263 42 323 8 43 18 91
30 147 2 11 6 32 8 46 2 15 8 35 13 45 5 11 9 26 8 34 -1 8 2 20 7 26 4 6 9
23 10 38 1 14 6 26 11 26 5 0 7 6 4 14 -3 8 -2 16 3 18 5 2 12 17 15 33 8 39
9 44 24 80 7 17 14 35 15 40 1 6 8 20 14 33 7 12 10 22 6 22 -3 0 -1 6 5 13 6
8 8 17 4 20 -3 4 -1 7 5 7 7 0 12 7 12 16 0 13 6 15 28 9 15 -4 34 -8 42 -10
8 -2 41 -12 72 -23 31 -11 59 -17 62 -14 3 3 6 1 6 -4 0 -9 14 -13 58 -16 6
-1 12 -6 12 -11 0 -5 6 -7 14 -4 7 3 18 1 22 -3 5 -5 18 -11 29 -13 11 -1 25
-5 30 -9 6 -3 26 -9 45 -14 44 -10 42 -9 62 -18 9 -4 25 -9 35 -11 10 -2 18
-4 18 -5 0 -1 11 -3 24 -6 14 -2 31 -9 38 -16 7 -6 16 -8 20 -5 3 4 11 3 17
-2 7 -6 23 -12 36 -15 14 -3 61 -17 105 -31 87 -29 113 -36 133 -37 6 -1 12
-5 12 -9 0 -4 17 -10 38 -15 42 -9 50 -10 57 -14 3 -1 9 -3 14 -4 5 0 12 -4
16 -8 4 -4 13 -4 21 -1 8 3 14 0 14 -7 0 -7 7 -10 15 -7 8 4 17 2 19 -2 3 -5
20 -12 38 -16 18 -4 39 -9 46 -11 6 -2 20 -6 30 -8 9 -3 18 -5 20 -6 1 -2 5
-3 10 -5 4 -1 14 -4 22 -8 25 -9 85 -27 93 -27 4 0 23 -6 42 -14 19 -8 35 -12
35 -9 0 3 7 0 15 -7 8 -7 15 -9 15 -5 0 4 6 2 14 -4 7 -6 25 -12 40 -13 14 -1
26 -5 26 -9 0 -3 6 -6 13 -7 23 -1 56 -11 76 -22 12 -6 21 -9 21 -6 0 3 16 -2
35 -10 19 -8 35 -11 35 -8 0 4 7 1 15 -6 8 -7 15 -9 15 -5 0 4 6 3 13 -3 12
-10 54 -22 85 -24 6 -1 12 -4 12 -7 0 -4 12 -8 27 -9 15 -1 30 -7 34 -13 3 -6
8 -9 10 -8 2 2 33 -5 69 -16 36 -10 68 -18 73 -17 4 1 7 -3 7 -10 0 -6 3 -9 6
-5 3 3 23 -1 44 -8 21 -7 41 -11 44 -8 3 4 6 1 6 -6 0 -7 6 -11 14 -8 8 3 17
3 20 -1 4 -3 12 -7 19 -8 7 -1 35 -10 62 -19 28 -10 57 -19 65 -20 8 -2 16 -4
18 -5 1 -2 7 -4 12 -5 6 -1 12 -4 15 -5 3 -1 10 -4 15 -5 6 -1 11 -3 13 -5 2
-2 19 -6 52 -14 11 -2 22 -5 25 -6 3 -1 8 -2 13 -1 4 0 7 -3 7 -8 0 -9 57 -27
73 -23 4 1 7 -2 7 -8 0 -5 7 -7 15 -4 8 4 15 2 15 -3 0 -5 6 -10 13 -11 6 0
23 -3 37 -7 14 -3 32 -8 40 -10 8 -2 15 -4 15 -5 0 -2 38 -11 65 -14 14 -2 34
-6 45 -9 71 -21 382 -30 490 -14 28 4 67 10 89 12 21 3 42 8 46 10 4 3 25 7
46 11 22 3 46 10 55 15 9 4 19 6 22 2 4 -3 13 0 22 7 8 7 15 9 15 5 0 -4 7 -1
17 6 9 8 17 13 17 11 1 -4 34 6 61 19 11 6 30 11 43 12 12 0 22 4 22 8 0 4 10
10 23 14 12 4 24 8 27 9 3 1 15 7 26 14 12 6 24 8 28 5 3 -3 6 -1 6 6 0 7 5 9
10 6 6 -3 10 -1 10 4 0 6 5 11 11 11 6 0 22 9 36 20 14 11 29 17 34 14 5 -3 9
0 9 7 0 7 3 10 6 6 3 -3 11 -1 18 4 46 39 60 49 67 49 5 0 17 10 29 22 11 12
20 19 20 15 0 -4 8 1 18 11 32 29 62 52 70 52 4 0 25 20 46 45 22 24 44 42 50
38 6 -3 8 -3 4 1 -4 5 11 25 33 47 21 21 39 42 39 46 0 4 12 18 27 30 14 13
23 23 19 23 -4 0 3 11 16 25 38 40 48 54 48 65 0 6 7 13 15 16 8 4 15 12 15
18 0 7 9 22 19 33 11 12 17 24 14 27 -4 3 0 6 7 6 7 0 11 3 7 6 -3 3 3 15 13
27 11 11 17 24 14 29 -3 4 0 8 6 8 6 0 8 5 5 10 -3 6 -2 10 4 10 6 0 15 10 22
21 9 17 8 20 -3 13 -7 -4 -4 2 6 14 11 12 15 22 11 22 -4 0 -1 8 8 18 10 10
14 22 10 25 -3 4 -1 7 5 7 7 0 11 3 10 8 -1 4 4 21 11 37 7 17 14 35 15 40 2
6 6 18 10 27 4 9 8 22 10 30 1 7 4 18 8 23 5 9 20 63 24 90 1 6 3 12 4 15 1 3
4 14 6 25 10 46 15 72 18 100 2 17 5 30 6 30 7 0 13 123 13 250 -1 143 -4 186
-18 265 -4 19 -8 49 -10 66 -3 17 -9 42 -14 55 -5 13 -9 26 -9 29 -1 12 -14
66 -19 80 -4 8 -5 21 -4 28 1 6 -4 12 -10 12 -7 0 -10 3 -6 6 3 4 0 19 -8 34
-8 15 -11 30 -8 34 4 3 1 6 -5 6 -7 0 -11 3 -10 8 4 11 -36 102 -45 102 -5 0
-6 4 -3 9 3 5 -4 20 -15 35 -11 14 -18 26 -14 26 3 0 -2 14 -12 30 -9 17 -20
30 -24 30 -4 0 -10 12 -14 27 -3 15 -15 35 -26 44 -11 10 -20 20 -20 23 3 20
0 26 -9 21 -5 -3 -10 -1 -10 5 0 7 -10 21 -22 32 -13 11 -16 16 -8 12 8 -4 -2
10 -23 30 -20 20 -35 36 -32 36 5 0 -25 37 -52 66 -7 7 -13 17 -13 21 0 5 -11
19 -25 31 -14 12 -25 26 -25 32 0 5 -5 9 -12 8 -7 -2 -12 2 -13 7 0 10 -15 29
-65 83 -14 15 -32 39 -39 54 -8 15 -18 25 -23 22 -4 -3 -8 2 -8 11 0 8 -7 18
-15 21 -8 4 -15 11 -15 18 0 6 -9 18 -19 26 -11 7 -18 17 -15 22 3 4 -3 8 -12
8 -10 0 -14 3 -11 7 4 3 -7 19 -23 35 -16 15 -27 28 -23 28 3 0 -5 10 -18 23
-14 12 -26 25 -27 29 -3 10 -39 54 -72 87 -13 15 -24 29 -22 34 1 4 -2 7 -8 7
-5 0 -10 5 -10 11 0 6 -13 24 -30 39 -16 15 -30 33 -30 40 0 6 -4 8 -10 5 -5
-3 -10 1 -10 9 0 9 -4 16 -10 16 -5 0 -10 7 -10 15 0 9 -7 18 -15 21 -8 4 -15
12 -15 20 0 8 -6 14 -14 14 -8 0 -18 5 -22 12 -5 7 -2 9 7 4 8 -4 0 5 -16 21
-17 15 -24 24 -15 19 8 -5 -3 9 -25 32 -54 55 -65 69 -58 76 4 3 -1 6 -11 6
-9 0 -14 5 -11 10 3 6 -1 13 -9 16 -9 3 -16 12 -16 19 0 7 -16 27 -37 44 -20
17 -32 31 -28 31 5 0 -7 14 -26 31 -19 18 -27 28 -19 24 14 -7 -6 16 -75 88
-16 17 -23 27 -15 23 8 -4 3 3 -11 16 -14 13 -29 31 -32 41 -4 9 -11 17 -16
17 -5 0 -13 9 -16 20 -4 11 -11 18 -16 15 -5 -4 -9 0 -9 8 0 8 -11 22 -25 31
-14 9 -25 23 -25 31 0 7 -10 21 -22 29 -12 9 -18 16 -13 16 6 0 -3 11 -19 25
-16 14 -25 25 -21 25 4 0 -4 10 -18 23 -15 12 -27 27 -27 33 0 5 -13 21 -30
36 -16 14 -26 28 -23 32 3 3 -2 8 -11 12 -9 3 -16 13 -16 21 0 8 -4 11 -10 8
-5 -3 -10 1 -10 10 0 8 -7 18 -15 21 -8 4 -15 12 -15 20 0 7 -9 19 -20 27 -11
8 -17 17 -13 20 3 4 -2 7 -12 7 -10 0 -15 3 -12 6 4 4 -3 15 -15 25 -11 11
-18 19 -13 19 4 0 -7 14 -25 30 -18 17 -29 30 -26 30 4 0 -8 16 -26 34 -48 50
-58 64 -58 76 0 6 -4 8 -10 5 -5 -3 -10 -1 -10 6 0 6 -10 22 -22 35 -43 45
-56 62 -50 68 3 3 -2 6 -11 6 -9 0 -17 7 -17 15 0 8 -4 15 -10 15 -5 0 -10 6
-10 13 0 7 -8 20 -17 28 -10 9 -34 35 -53 58 -19 23 -42 50 -51 60 -9 10 -28
35 -41 55 -14 20 -27 33 -30 30 -3 -2 -8 7 -12 20 -3 14 -10 25 -14 23 -4 -1
-8 2 -9 6 -1 4 -16 21 -34 38 -17 16 -28 29 -23 29 4 0 -7 14 -24 31 -37 36
-39 52 -12 79 11 11 17 20 13 20 -3 0 6 10 20 23 15 12 27 28 27 35 0 7 5 10
10 7 6 -3 10 -1 10 5 0 11 16 30 87 106 18 19 30 34 27 34 -3 0 10 14 28 31
18 18 26 28 18 23 -8 -4 2 8 23 28 20 19 37 41 37 47 0 7 5 9 10 6 6 -3 10 0
10 8 0 8 7 18 16 21 9 4 14 9 11 13 -4 3 8 18 26 34 17 15 32 34 32 41 0 7 6
13 13 13 6 0 12 4 11 8 0 5 9 17 21 27 12 10 21 21 21 24 -1 3 1 5 4 4 2 -2
12 8 22 22 9 14 25 31 35 38 10 7 18 17 18 23 0 5 8 17 18 27 42 45 77 88 77
97 1 6 6 9 13 8 7 -2 12 1 12 6 0 4 12 21 28 36 15 16 20 25 12 20 -8 -5 1 7
20 26 19 19 41 43 48 54 7 11 10 14 6 6 -5 -9 -3 -12 4 -7 7 4 12 13 12 19 0
7 9 19 19 27 11 7 18 17 16 21 -3 4 3 13 12 20 14 12 16 12 8 0 -5 -10 -4 -12
3 -7 7 4 12 12 12 19 0 6 10 20 23 32 13 11 16 16 7 11 -8 -5 5 10 30 34 25
23 38 39 30 34 -8 -4 6 13 33 38 26 25 47 48 47 52 0 3 15 21 33 39 44 45 101
117 105 134 2 7 7 11 12 8 5 -3 11 4 15 15 4 11 10 18 14 16 4 -3 18 12 32 33
13 22 27 37 32 34 4 -2 7 0 7 4 0 9 29 46 93 115 20 23 37 47 37 54 0 7 5 16
12 20 7 5 8 3 3 -6 -5 -9 -4 -11 3 -6 7 4 12 14 12 22 0 8 5 12 10 9 6 -3 10
-2 10 3 0 5 17 29 38 52 20 24 37 46 37 51 0 4 4 11 9 16 6 5 6 2 1 -7 -8 -13
-7 -13 8 -1 10 8 16 16 13 18 -2 2 8 17 22 32 44 46 146 163 161 185 8 11 22
27 30 36 9 9 36 41 61 70 25 29 53 60 63 69 9 8 17 19 17 24 0 4 15 21 32 38
18 16 30 29 26 29 -4 0 10 17 30 38 52 55 91 102 84 102 -4 0 4 7 16 16 12 8
20 20 16 25 -3 5 0 8 6 7 7 -2 17 5 23 15 7 10 33 41 59 70 26 28 46 53 44 54
-2 2 16 23 38 47 72 76 106 114 106 119 0 3 12 18 28 34 15 16 45 51 67 78 22
27 57 67 77 88 20 22 35 44 32 49 -3 5 -1 7 3 6 9 -3 33 23 122 128 14 18 44
53 66 79 22 27 50 59 63 71 13 13 19 24 15 24 -4 0 3 7 15 16 12 8 20 20 16
25 -3 5 -1 8 4 7 11 -3 72 69 72 84 0 5 5 6 10 3 6 -3 10 -2 10 3 0 4 20 30
44 58 24 27 42 53 39 58 -4 5 -1 6 5 2 6 -3 14 0 19 8 4 7 28 37 53 66 25 30
44 57 42 62 -1 5 2 7 8 3 5 -3 13 1 16 10 4 9 21 31 38 49 39 41 76 85 75 89
-1 1 16 20 37 43 22 22 55 59 74 83 19 24 49 58 65 76 38 42 106 123 123 147
11 15 11 19 -4 25 -10 3 -25 14 -34 22 -33 31 -60 51 -60 44 0 -4 -6 0 -12 9
-16 19 -168 131 -168 123 0 -3 -14 8 -31 25 -31 29 -43 35 -64 30 -5 -1 -7 2
-3 6 7 7 -293 214 -310 214 -5 0 -15 7 -22 15 -7 8 -16 13 -20 10 -4 -3 -10 2
-14 10 -7 19 -13 18 -58 -6z"/>
</g>
</svg>
